<?xml version="1.0" encoding="utf-8"?>
<!-- Generator: Adobe Illustrator 25.2.2, SVG Export Plug-In . SVG Version: 6.00 Build 0)  -->
<svg version="1.1" id="Ebene_1" xmlns="http://www.w3.org/2000/svg" xmlns:xlink="http://www.w3.org/1999/xlink" x="0px" y="0px"
	 viewBox="0 0 80 80" style="enable-background:new 0 0 80 80;" xml:space="preserve">
<style type="text/css">
	.st0{fill:none;stroke:#DF2935;stroke-linecap:square;stroke-linejoin:round;}
	.st1{fill:#DF2935;stroke:#DF2935;stroke-linecap:square;stroke-linejoin:round;}
	.st2{fill:#FFFFFF;}
	.st3{opacity:0.9;fill:#DF2935;enable-background:new    ;}
</style>
<polygon class="st0" points="5.8,59.4 39.7,79 39.7,39.8 5.8,20.3 "/>
<polygon class="st0" points="39.7,0.7 73.6,20.3 39.7,39.8 5.8,20.3 "/>
<polygon class="st1" points="73.6,59.4 39.7,79 39.7,39.8 73.6,20.3 "/>
<path class="st2" d="M51.3,46.2v2.9l-3.5,2.1v15l-2.6,1.6v-15l-3.6,2.1v-2.9L51.3,46.2z"/>
<path class="st2" d="M62.5,39.8v2.9l-3.6,2v15.1l-2.6,1.6V46.3l-3.6,2.1v-2.9L62.5,39.8z"/>
<path class="st2" d="M73.6,33.4v2.9l-3.6,2.1v15l-2.7,1.6v-15L63.6,42V39L73.6,33.4z"/>
<polygon class="st3" points="63.1,19.7 60.8,18.4 65,15.9 67.2,17.2 "/>
<polygon class="st3" points="59.5,17.5 57.2,16.2 61.4,13.8 63.6,15.2 "/>
</svg>
