<svg id="Ebene_1" data-name="Ebene 1" xmlns="http://www.w3.org/2000/svg" viewBox="0 0 1000 1000"><defs><style>.cls-1{fill:#fff;}.cls-2{stroke:#fff;stroke-miterlimit:10;stroke-width:5px;}</style></defs><g id="Bodzshot"><circle cx="499.32" cy="276.03" r="202.93"/><path d="M874.91,608.45V896.58a30.32,30.32,0,0,1-30.32,30.32H759a30.32,30.32,0,0,1-30.32-30.32V699a13.78,13.78,0,0,0-15.15-13.7c-7.15.74-12.36,7.16-12.36,14.35V896.58a30.32,30.32,0,0,1-30.32,30.32H322.22a30.31,30.31,0,0,1-30.32-30.32V699a13.79,13.79,0,0,0-15.16-13.7c-7.14.74-12.36,7.16-12.36,14.35V896.58a30.31,30.31,0,0,1-30.32,30.32H155.41a30.32,30.32,0,0,1-30.32-30.32V608.45c0-59,48.23-107.2,107.21-107.2H767.7C826.68,501.25,874.91,549.5,874.91,608.45Z"/><path class="cls-1" d="M640.56,637.63l31.89-48.1a1.47,1.47,0,0,0-1.23-2.28H640.58a1.46,1.46,0,0,0-1.2.62l-17.5,25a1.47,1.47,0,0,1-2.46-.09L604.66,588a1.46,1.46,0,0,0-1.26-.71H570.07a1.47,1.47,0,0,0-1.22,2.28l31.73,47.94a1.47,1.47,0,0,1,0,1.54l-32.29,56.1a1.46,1.46,0,0,0,1.27,2.2h30.85a1.46,1.46,0,0,0,1.3-.78l17.42-33.23a1.47,1.47,0,0,1,2.64.08l14.83,33.07a1.47,1.47,0,0,0,1.34.86h33.54a1.47,1.47,0,0,0,1.27-2.2l-32.29-55.94A1.47,1.47,0,0,1,640.56,637.63Z"/><path class="cls-2" d="M818,626.73a1.49,1.49,0,0,1,1.46,1.48v29.36h0c-14,.5-22.44-6.58-22.44-15.41C797.06,633.65,804.9,626.76,818,626.73Z"/><rect class="cls-2" x="818.79" y="625.33" width="60.31" height="33.66" rx="3.16"/><rect x="884.71" y="623.93" width="8.42" height="36.47" rx="1.88"/><rect x="896.29" y="634.25" width="28.24" height="3.44" rx="0.5"/><rect x="904.76" y="641.13" width="28.24" height="3.44" rx="0.5"/><rect x="896.29" y="648.01" width="28.24" height="3.44" rx="0.5"/></g></svg>