<svg xmlns="http://www.w3.org/2000/svg" viewBox="0 0 1000 1000"><defs><style>.cls-1{isolation:isolate;}.cls-2{stroke:#fff;stroke-miterlimit:10;stroke-width:10px;mix-blend-mode:difference;}.cls-3{fill:#fff;}</style></defs><g class="cls-1"><g id="Ebene_1" data-name="Ebene 1"><g id="HL"><circle cx="241.61" cy="171.64" r="90.64"/><path d="M167.74,564.14h41.13a12,12,0,0,1,12,12V907a12,12,0,0,1-12,12H163.74a12,12,0,0,1-12-12V580.14A16,16,0,0,1,167.74,564.14Z"/><path d="M279.88,558H321a12,12,0,0,1,12,12V907a12,12,0,0,1-12,12H275.88a12,12,0,0,1-12-12V574A16,16,0,0,1,279.88,558Z"/><path d="M363.48,292.23H124.34a48,48,0,0,0-47.87,47.88V587.18A18.48,18.48,0,0,0,94.9,605.61h24.2A19.58,19.58,0,0,0,138.68,586V380.85a6.35,6.35,0,0,1,5.52-6.4,6.15,6.15,0,0,1,6.77,6.11V586.8a25,25,0,0,0,25,25h43.39v-4.61a18.49,18.49,0,0,1,18.44-18.43h7.68a18.48,18.48,0,0,1,18.43,18.43v4.61h44.94a25,25,0,0,0,25-25V380.85a6.35,6.35,0,0,1,5.52-6.4,6.16,6.16,0,0,1,6.77,6.11V586a19.59,19.59,0,0,0,19.59,19.58h27.26a18.49,18.49,0,0,0,18.44-18.43V340.11A48,48,0,0,0,363.48,292.23Z"/></g><g id="HR"><circle cx="759.78" cy="171.64" r="90.64"/><path d="M685.92,564.14H727a12,12,0,0,1,12,12V907a12,12,0,0,1-12,12H681.92a12,12,0,0,1-12-12V580.14A16,16,0,0,1,685.92,564.14Z"/><path d="M798.06,558h41.13a12,12,0,0,1,12,12V907a12,12,0,0,1-12,12H794.06a12,12,0,0,1-12-12V574A16,16,0,0,1,798.06,558Z"/><path d="M881.66,292.23H642.52a48,48,0,0,0-47.88,47.88V587.18a18.49,18.49,0,0,0,18.44,18.43h24.19A19.59,19.59,0,0,0,656.86,586V380.85a6.34,6.34,0,0,1,5.51-6.4,6.16,6.16,0,0,1,6.78,6.11V586.8a25,25,0,0,0,25,25h43.4v-4.61a18.48,18.48,0,0,1,18.43-18.43h7.68a18.49,18.49,0,0,1,18.44,18.43v4.61H827a25,25,0,0,0,25-25V380.85a6.34,6.34,0,0,1,5.51-6.4,6.16,6.16,0,0,1,6.78,6.11V586a19.58,19.58,0,0,0,19.58,19.58H911.1a18.48,18.48,0,0,0,18.43-18.43V340.11A48,48,0,0,0,881.66,292.23Z"/></g><path class="cls-2" d="M745.53,409.44,625.32,340a18.14,18.14,0,0,0-27.21,15.71v21H410v-21A18.14,18.14,0,0,0,382.77,340l-120.21,69.4a18.14,18.14,0,0,0,0,31.42l120.21,69.4A18.14,18.14,0,0,0,410,494.55v-22.3H598.11v22.3a18.14,18.14,0,0,0,27.21,15.71l120.21-69.4A18.14,18.14,0,0,0,745.53,409.44Z"/><rect class="cls-3" x="426.23" y="410.04" width="155.39" height="26.41" rx="12"/></g></g></svg>