<svg id="Ebene_1" data-name="Ebene 1" xmlns="http://www.w3.org/2000/svg" viewBox="0 0 1000 1000"><defs><style>.cls-1,.cls-2{fill:none;stroke:#000;stroke-linecap:round;stroke-miterlimit:10;}.cls-1{stroke-width:72px;}.cls-2{stroke-width:80px;}</style></defs><path class="cls-1" d="M214,896c0-434.65,565.47-352.35,565.47-787"/><path class="cls-2" d="M779.47,896C779.47,461.35,214,543.65,214,109"/><path d="M637.4,139.3H780.05c7.12,0,13,8.11,13,18v40.94c0,9.91-5.83,18-13,18H637.4c-8.31,0-15-9.37-15-20.93V160.23C622.36,148.67,629.09,139.3,637.4,139.3Z"/><path d="M229.44,139.3H559.07c8.31,0,15,9.37,15,20.93v35.12c0,11.56-6.73,20.93-15,20.93H229.44c-7.12,0-12.94-8.11-12.94-18V157.32C216.5,147.41,222.32,139.3,229.44,139.3Z"/><path d="M388.43,303.09H292.85c-7.12,0-13,8.11-13,18l4.9,31.94c0,9.91,5.83,18,12.95,18l90.68,9c8.31,0,15-9.37,15-20.93V324C403.47,312.46,396.74,303.09,388.43,303.09Z"/><path d="M697.68,303.09H466.76c-8.31,0-15,9.37-15,20.93v35.12c0,11.56,6.73,20.93,15,20.93H688.69c7.12,0,12.95-8.11,12.95-18l9-40.94C710.62,311.2,704.8,303.09,697.68,303.09Z"/><path d="M388.43,630.66H292.85c-7.12,0-13,8.11-13,18v41c0,9.91,5.83,18,13,18h95.58c8.31,0,15-9.37,15-20.92V651.59C403.47,640,396.74,630.66,388.43,630.66Z"/><path d="M678.87,630.66H466.76c-8.31,0-15,9.37-15,20.93v35.13c0,11.55,6.73,20.92,15,20.92H708.27c7.12,0,12.94-8.1,12.94-18l-29.4-41C691.81,638.77,686,630.66,678.87,630.66Z"/><path d="M637.4,794.45H780.05c7.12,0,13,8.11,13,18v40.95c0,9.9-5.83,18-13,18H637.4c-8.31,0-15-9.37-15-20.93V815.38C622.36,803.82,629.09,794.45,637.4,794.45Z"/><path d="M236,794.45h323.1c8.31,0,15,9.37,15,20.93V850.5c0,11.56-6.73,20.93-15,20.93H236c-7.12,0-12.94-8.11-12.94-18V812.47C223,802.56,228.85,794.45,236,794.45Z"/></svg>