<svg id="Ebene_1" data-name="Ebene 1" xmlns="http://www.w3.org/2000/svg" viewBox="0 0 1000 1000"><defs><style>.cls-1,.cls-3,.cls-5{fill:none;}.cls-1{stroke:#ff849f;}.cls-1,.cls-2,.cls-3,.cls-4,.cls-5,.cls-6{stroke-miterlimit:10;}.cls-2{fill:#fff;}.cls-2,.cls-5,.cls-6{stroke:#000;}.cls-3,.cls-4{stroke:#fff;}.cls-3{stroke-width:5px;}.cls-4{stroke-width:10px;}</style></defs><path class="cls-1" d="M449.81,381.15H406.72A45.76,45.76,0,0,0,363,413.5l-11.13,36.32a5.94,5.94,0,0,0,5.68,7.69H418a19.25,19.25,0,0,0,18.4-13.61l17.53-57.2A4.3,4.3,0,0,0,449.81,381.15Z"/><line class="cls-1" x1="77.36" y1="304.38" x2="928.46" y2="304.38"/><path d="M133.42,766.83c44.55-.62,113.24-1.77,159-2.39a17.39,17.39,0,0,0,17-14.9c7.42-51.32,32-221.47,37.8-261.62a10,10,0,0,1,9.87-8.54h64.22a41.41,41.41,0,0,0,39.59-29.27l14.72-47.9a28.78,28.78,0,0,1,27.5-20.32h5.52l402.41,2.36a17.65,17.65,0,0,0,17.76-17.65v-8.77c-.4-52.14-.81-87.26-1.21-135.17a21.4,21.4,0,0,0-21.39-21.22H98.16A21.41,21.41,0,0,0,76.75,223c.19,28,.39,54.63.58,81.36.19,26.47.39,53,.58,81.09a12.22,12.22,0,0,0,10.76,12.07c13.3,1.58,29.63,5.75,37.51,11.86,20.4,15.79,28.24,43,20.55,67.62L80.88,688l-12.61,41.5c-4.16,13.7,2.13,28.76,15.21,34.59A29,29,0,0,0,95,766.58Z"/><path class="cls-2" d="M205.48,202.82h18a0,0,0,0,1,0,0V272.6A6.44,6.44,0,0,1,217,279h-5.13a6.44,6.44,0,0,1-6.44-6.44V202.82A0,0,0,0,1,205.48,202.82Z"/><path class="cls-2" d="M238.73,202.82h18a0,0,0,0,1,0,0V272.6A6.44,6.44,0,0,1,250.3,279h-5.13a6.44,6.44,0,0,1-6.44-6.44V202.82A0,0,0,0,1,238.73,202.82Z"/><path class="cls-2" d="M272,202.82h18a0,0,0,0,1,0,0V272.6a6.44,6.44,0,0,1-6.44,6.44h-5.13A6.44,6.44,0,0,1,272,272.6V202.82A0,0,0,0,1,272,202.82Z"/><path class="cls-2" d="M305.25,202.82h18a0,0,0,0,1,0,0V272.6a6.44,6.44,0,0,1-6.44,6.44h-5.13a6.44,6.44,0,0,1-6.44-6.44V202.82A0,0,0,0,1,305.25,202.82Z"/><rect class="cls-3" x="206.17" y="332.39" width="117.79" height="33.26" rx="7.5"/><path class="cls-2" d="M448.25,380.94h-43.1a45.78,45.78,0,0,0-43.75,32.35l-11.13,36.32a5.94,5.94,0,0,0,5.68,7.68h60.47a19.24,19.24,0,0,0,18.4-13.6l17.53-57.2A4.29,4.29,0,0,0,448.25,380.94Z"/><path class="cls-3" d="M298.82,439.1l-93.54.17a12.4,12.4,0,0,0-11.85,8.83l-22.8,76.17-6.19,19.83-35.59,114c-3.42,11-5.9,25.55-.12,35.46,6.24,10.71,20.39,15.08,33.75,15.08,23.59-.33,57.75-.89,85.46-1.3a30.39,30.39,0,0,0,29.62-26L300,526.18l.23-1.6,10.89-71.22A12.38,12.38,0,0,0,298.82,439.1Z"/><path d="M926.92,261.72h-.16V226.38h.16a5.84,5.84,0,0,1,6.08,5.56v24.22A5.84,5.84,0,0,1,926.92,261.72Z"/><line class="cls-4" x1="928.46" y1="304.38" x2="77.36" y2="304.38"/><path class="cls-5" d="M445.53,380.89H418a62.22,62.22,0,0,0-14.37,1.68,7.55,7.55,0,0,0-5.51,5.43l0,.05c-4.26,15.24,1.61,29.8,6.57,43.86,3.05,6.91-5.9,10.3-10.55,4.21-5.85-7.37-15.67-22.18-20.49-29.49a3.75,3.75,0,0,0-6.16-.15,62.37,62.37,0,0,0-9.43,18.75l-6.33,20.65a8.15,8.15,0,0,0,7.79,10.54h51.31a26.39,26.39,0,0,0,25.22-18.65l15.1-49.27A5.89,5.89,0,0,0,445.53,380.89Z"/><path class="cls-6" d="M403.64,432.86c-3.1-8.78-5.68-17.12-6.93-26.33-.77-5.7-1.65-12.13,0-18,.6-2.22,3.08-3.38,3.68-5.6l4.05-4.74-7.17,1.41a63.35,63.35,0,0,0-20.82,12.92c-1.95,1.82-10.41,6.72-11.16,9.23-.06.18,1.6.32,2,.43,1.32.33,3,1.08,3.05,1.59.27.37,1.54-.09,1.83.28s2.12,2,2.33,2.49c1.75,3.82,4.77,7.65,6.93,11.09,2.46,3.94,5.79,7.44,8.31,11.08,1.88,2.72,2,2.77,4.16,5.55C398.64,440.41,406.73,439.84,403.64,432.86Z"/></svg>