<svg id="PS" xmlns="http://www.w3.org/2000/svg" viewBox="0 0 624.93 408"><defs><style>.cls-1,.cls-3,.cls-5{fill:none;}.cls-1{stroke:#ff849f;}.cls-1,.cls-2,.cls-3,.cls-4,.cls-5,.cls-6{stroke-miterlimit:10;}.cls-2{fill:#fff;}.cls-2,.cls-5,.cls-6{stroke:#000;}.cls-3,.cls-4{stroke:#fff;}.cls-3{stroke-width:5px;}.cls-4{stroke-width:10px;}</style></defs><path class="cls-1" d="M485.21,442.19H465.14a45.75,45.75,0,0,0-43.75,32.34l-4.62,15.07a6,6,0,0,0,5.69,7.69h37.43a19.24,19.24,0,0,0,18.4-13.61l11-35.94A4.29,4.29,0,0,0,485.21,442.19Z" transform="translate(-210.57 -312.5)"/><path class="cls-1" d="M413.49,513.28" transform="translate(-210.57 -312.5)"/><path class="cls-1" d="M263,720.11" transform="translate(-210.57 -312.5)"/><path class="cls-1" d="M219.82,699.74" transform="translate(-210.57 -312.5)"/><line class="cls-1" x1="7.48" y1="74.28" x2="621.65" y2="74.28"/><path d="M258.5,720.5c32.15-.44,81.72-1.28,114.77-1.72A12.55,12.55,0,0,0,385.53,708c5.35-37,23.09-159.81,27.28-188.78a7.18,7.18,0,0,1,7.12-6.17h46.34a29.89,29.89,0,0,0,28.58-21.13l10.61-34.55a20.77,20.77,0,0,1,19.85-14.67h4l290.39,1.7a12.73,12.73,0,0,0,12.82-12.74v-6.33c-.29-37.62-.58-63-.88-97.53a15.44,15.44,0,0,0-15.43-15.32H233.06a15.45,15.45,0,0,0-15.45,15.57c.14,20.2.28,39.42.42,58.72.14,19.1.28,38.27.41,58.51a8.82,8.82,0,0,0,7.77,8.71c9.6,1.14,21.38,4.15,27.07,8.56,14.72,11.39,20.37,31,14.83,48.79L220.59,663.61l-9.1,29.94c-3,9.89,1.53,20.76,11,25a20.9,20.9,0,0,0,8.34,1.81Z" transform="translate(-210.57 -312.5)"/><path class="cls-2" d="M99.93,1h13a0,0,0,0,1,0,0V49.56A6.44,6.44,0,0,1,106.48,56h-.11a6.44,6.44,0,0,1-6.44-6.44V1A0,0,0,0,1,99.93,1Z"/><path class="cls-2" d="M123.93,1h13a0,0,0,0,1,0,0V49.56A6.44,6.44,0,0,1,130.48,56h-.11a6.44,6.44,0,0,1-6.44-6.44V1A0,0,0,0,1,123.93,1Z"/><path class="cls-2" d="M147.93,1h13a0,0,0,0,1,0,0V49.56A6.44,6.44,0,0,1,154.48,56h-.11a6.44,6.44,0,0,1-6.44-6.44V1A0,0,0,0,1,147.93,1Z"/><path class="cls-2" d="M171.93,1h13a0,0,0,0,1,0,0V49.56A6.44,6.44,0,0,1,178.48,56h-.11a6.44,6.44,0,0,1-6.44-6.44V1A0,0,0,0,1,171.93,1Z"/><rect class="cls-3" x="100.43" y="94.5" width="85" height="24" rx="7.5"/><path class="cls-2" d="M484.08,442H464a45.76,45.76,0,0,0-43.75,32.35l-4.61,15.07a5.93,5.93,0,0,0,5.68,7.68h37.44a19.23,19.23,0,0,0,18.39-13.6l11-35.95A4.29,4.29,0,0,0,484.08,442Z" transform="translate(-210.57 -312.5)"/><path class="cls-1" d="M420.26,465.57" transform="translate(-210.57 -312.5)"/><path class="cls-1" d="M385.77,743.4" transform="translate(-210.57 -312.5)"/><path class="cls-1" d="M351.59,723" transform="translate(-210.57 -312.5)"/><path class="cls-3" d="M377.86,484l-67.5.12a9,9,0,0,0-8.55,6.38l-16.46,55-4.46,14.31L255.2,642.05c-2.46,7.9-4.25,18.44-.08,25.59,4.5,7.73,14.72,10.88,24.35,10.88,17-.23,41.68-.64,61.67-.93a21.94,21.94,0,0,0,21.38-18.79l16.17-111.95.17-1.16,7.86-51.4A9,9,0,0,0,377.86,484Z" transform="translate(-210.57 -312.5)"/><path d="M831.11,356H831V330.5h.11a4.21,4.21,0,0,1,4.39,4V352A4.21,4.21,0,0,1,831.11,356Z" transform="translate(-210.57 -312.5)"/><line class="cls-4" x1="621.65" y1="74.28" x2="7.48" y2="74.28"/><path class="cls-5" d="M483.73,442H463.88a45.12,45.12,0,0,0-10.37,1.21,5.46,5.46,0,0,0-4,3.92v0c-3.08,11,1.16,21.51,4.74,31.66,2.2,5-4.26,7.43-7.61,3-4.22-5.32-11.31-16-14.79-21.28a2.71,2.71,0,0,0-4.45-.11,45,45,0,0,0-6.8,13.54L416,488.9a5.88,5.88,0,0,0,5.62,7.6h37A19,19,0,0,0,476.89,483l10.9-35.55A4.25,4.25,0,0,0,483.73,442Z" transform="translate(-210.57 -312.5)"/><path class="cls-6" d="M453.5,479.5a93.85,93.85,0,0,1-5-19c-.56-4.11-1.19-8.75,0-13,.43-1.6,2.22-2.44,2.66-4l2.92-3.42-5.17,1a45.61,45.61,0,0,0-15,9.32c-1.41,1.31-7.51,4.85-8.05,6.66,0,.13,1.15.23,1.47.31.95.24,2.17.78,2.2,1.15.19.27,1.11-.06,1.32.21s1.53,1.46,1.68,1.79c1.26,2.76,3.45,5.52,5,8,1.78,2.85,4.18,5.37,6,8,1.36,2,1.41,2,3,4C449.89,485,455.73,484.53,453.5,479.5Z" transform="translate(-210.57 -312.5)"/></svg>