<svg id="Ebene_1" data-name="Ebene 1" xmlns="http://www.w3.org/2000/svg" viewBox="0 0 1000 1000"><defs><style>.cls-1{fill:#fff;}</style></defs><g id="Headshot"><circle cx="498.77" cy="276.03" r="202.93"/><path d="M874.36,608.45V896.58A30.31,30.31,0,0,1,844,926.9H758.5a30.31,30.31,0,0,1-30.32-30.32V699A13.79,13.79,0,0,0,713,685.34c-7.14.74-12.36,7.16-12.36,14.35V896.58a30.31,30.31,0,0,1-30.32,30.32H321.67a30.32,30.32,0,0,1-30.32-30.32V699a13.79,13.79,0,0,0-15.16-13.7c-7.14.74-12.36,7.16-12.36,14.35V896.58a30.31,30.31,0,0,1-30.32,30.32H154.87a30.31,30.31,0,0,1-30.32-30.32V608.45c0-59,48.22-107.2,107.2-107.2H767.16C826.13,501.25,874.36,549.5,874.36,608.45Z"/><path class="cls-1" d="M588,201.63l31.88-48.1a1.47,1.47,0,0,0-1.22-2.28H588a1.46,1.46,0,0,0-1.2.62l-17.49,25a1.48,1.48,0,0,1-2.47-.09L552.12,152a1.49,1.49,0,0,0-1.27-.71H517.52a1.47,1.47,0,0,0-1.22,2.28L548,201.47a1.45,1.45,0,0,1,.05,1.54l-32.29,56.1a1.47,1.47,0,0,0,1.27,2.2h30.85a1.46,1.46,0,0,0,1.3-.78l17.42-33.23a1.47,1.47,0,0,1,2.64.08l14.83,33.07a1.48,1.48,0,0,0,1.34.86H619a1.46,1.46,0,0,0,1.27-2.2L588,203.17A1.45,1.45,0,0,1,588,201.63Z"/><g id="Bullet"><path d="M740.46,188.54v35.58h0c-16.18.59-25.92-7.59-25.92-17.79S724.28,188,740.46,188.54Z"/><rect x="746.94" y="186.89" width="69.66" height="38.88" rx="2.5"/><rect x="823.08" y="185.27" width="9.72" height="42.12" rx="1.22"/></g><rect x="837.64" y="197.73" width="28.24" height="3.44" rx="0.5"/><rect x="846.12" y="204.61" width="28.24" height="3.44" rx="0.5"/><rect x="837.64" y="211.49" width="28.24" height="3.44" rx="0.5"/></g></svg>