<svg id="Ebene_1" data-name="Ebene 1" xmlns="http://www.w3.org/2000/svg" viewBox="0 0 1000 1000"><g id="Knife"><rect x="358.98" y="489.82" width="53.47" height="193.64" rx="12" transform="translate(-241.64 271.45) rotate(-30)"/><path d="M359.67,654.24l-26.14,15.09a4.57,4.57,0,0,1-5.63-.88A26,26,0,0,0,284,693.81a4.56,4.56,0,0,1-2.06,5.31l-13.23,7.64a4.56,4.56,0,0,1-5.78-1,26,26,0,0,0-44.33,25.6,4.56,4.56,0,0,1-2,5.52l-9.23,5.33a4.56,4.56,0,0,1-5.78-1,26,26,0,0,0-44.33,25.59,4.55,4.55,0,0,1-2,5.52L129.4,787.18a17.39,17.39,0,0,1-23.69-6.34l-28.9-50.06a17.39,17.39,0,0,1,6.34-23.69l230.27-133a17.39,17.39,0,0,1,23.69,6.35L366,630.55A17.39,17.39,0,0,1,359.67,654.24Z"/><path d="M828.67,351c48.25-27.37,62.69-79.54,56.38-124.14a11.91,11.91,0,0,0-8.49,1.32L398,504.45a12,12,0,0,0-4.4,16.39l35.22,61Z"/><path d="M914.32,269.55l-18.06-31.28a142,142,0,0,1-7.59,55.57,121.32,121.32,0,0,1-55,65.82L433.83,590.49,451,620.2a12,12,0,0,0,16.39,4.39L883.57,384.3A84.25,84.25,0,0,0,914.32,269.55Z"/></g></svg>