<svg id="Ebene_1" data-name="Ebene 1" xmlns="http://www.w3.org/2000/svg" viewBox="0 0 1000 1000"><defs><style>.cls-1{fill:none;stroke:#000;stroke-linecap:round;stroke-miterlimit:10;stroke-width:44px;}</style></defs><g id="Radar"><path d="M454.94,927a13.13,13.13,0,0,0,12.91-14.22c-6.8-91.24-80.94-163.09-171.41-163.09S131.83,821.55,125,912.79A13.12,13.12,0,0,0,137.94,927Z"/><path d="M360.67,198a38.68,38.68,0,0,0-59.19,1.06C196.16,327.27,197,519,309.8,646.44s298.35,146.29,432.32,50.49c19.52-14,22.57-42.43,6.57-60.51Z"/><path class="cls-1" d="M581.55,225.21c93.5,4.52,165.74,86.13,161.34,182.28"/><path class="cls-1" d="M555.45,73c185,8.94,327.87,170.38,319.17,360.59"/><path class="cls-1" d="M202.79,740.84c-9.64-45.4,18.33-90.24,62.47-100.16"/><rect x="524" y="336" width="62" height="142" rx="31" transform="translate(482.4 -277.4) rotate(47.69)"/></g></svg>